<svg width="33" height="32" viewBox="0 0 33 32" fill="none" xmlns="http://www.w3.org/2000/svg">
<rect width="33" height="32" rx="16" fill="url(#paint0_linear_89_50)"/>
<path d="M18.0563 22.7647C17.4744 23.5882 16.7478 24 15.8755 24C15.0033 24 14.2766 23.5882 13.6948 22.7647M20.3111 21.5294H11.44C11.1851 21.5295 10.9348 21.4657 10.7146 21.3446C10.4944 21.2234 10.3122 21.0493 10.1867 20.8399C10.0612 20.6305 9.99679 20.3934 10.0001 20.1528C10.0035 19.9122 10.0744 19.6768 10.2057 19.4705C11.0618 18.1235 11.514 16.5821 11.5141 15.0111V14.1176C11.5141 13.2439 11.8817 12.4061 12.5361 11.7883C13.1904 11.1705 14.0779 10.8235 15.0033 10.8235H16.7478C17.6732 10.8235 18.5607 11.1705 19.215 11.7883C19.8694 12.4061 20.237 13.2439 20.237 14.1176V15.0111C20.237 16.5816 20.6888 18.1241 21.5454 19.4705C21.6767 19.6768 21.7476 19.9122 21.751 20.1528C21.7543 20.3934 21.6899 20.6305 21.5644 20.8399C21.4388 21.0493 21.2567 21.2234 21.0365 21.3446C20.8163 21.4657 20.566 21.5295 20.3111 21.5294V21.5294Z" stroke="white" stroke-linecap="round" stroke-linejoin="round"/>
<ellipse cx="20.0622" cy="10.8235" rx="2.93777" ry="2.82353" fill="#FFE600"/>
<defs>
<linearGradient id="paint0_linear_89_50" x1="0" y1="0" x2="49.4549" y2="29.034" gradientUnits="userSpaceOnUse">
<stop stop-color="#FF3A44"/>
<stop offset="1" stop-color="#FF8086"/>
</linearGradient>
</defs>
</svg>
